<svg xmlns="http://www.w3.org/2000/svg" viewBox="18 20 312 324" width="64" height="64" fill="#205577">
<path d="M0 0 C2.95 0.331 3.875 0.856 5.852 3.145 C6.437 4.025 7.022 4.905 7.625 5.812 C8.215 6.685 8.806 7.558 9.414 8.457 C11 11 11 11 12.086 13.262 C13 15 13 15 15 16 C15.124 14.804 15.248 13.608 15.375 12.375 C15.823 8.724 16.704 5.455 18 2 C19.32 2 20.64 2 22 2 C23 3 23 3 23.114 5.5 C23.108 6.584 23.103 7.668 23.098 8.785 C23.094 9.955 23.091 11.125 23.088 12.33 C23.08 13.562 23.071 14.793 23.062 16.062 C23.058 17.298 23.053 18.534 23.049 19.807 C23.037 22.871 23.021 25.936 23 29 C19.258 31.072 19.258 31.072 16.934 30.426 C14.504 28.634 13.496 26.837 12.062 24.188 C9.745 20.112 7.504 17.092 4 14 C4.023 14.892 4.046 15.784 4.07 16.703 C4.088 17.874 4.106 19.044 4.125 20.25 C4.148 21.41 4.171 22.57 4.195 23.766 C4.01 26.828 3.608 28.442 2 31 C0.68 30.67 -0.64 30.34 -2 30 C-2.058 25.563 -2.094 21.125 -2.125 16.688 C-2.142 15.425 -2.159 14.162 -2.176 12.861 C-2.182 11.653 -2.189 10.444 -2.195 9.199 C-2.206 8.084 -2.216 6.968 -2.227 5.819 C-2 3 -2 3 0 0 Z " fill="#205577" transform="translate(169,31)"/>
<path d="M0 0 C1.675 0.286 3.344 0.618 5 1 C5.17 1.741 5.34 2.482 5.516 3.246 C5.758 4.299 6 5.352 6.25 6.438 C6.522 7.62 6.794 8.802 7.074 10.02 C7.711 12.77 8.361 15.517 9.02 18.262 C10.732 25.418 12.33 32.537 13.57 39.793 C14 42 14 42 15 45 C16.234 48.703 16.833 52.409 17.496 56.25 C18.162 59.886 19.075 63.421 20 67 C20.347 68.664 20.687 70.329 21 72 C24.741 70.753 26.258 68.807 29 66 C32.41 63.144 35.939 60.643 39.688 58.25 C40.64 57.636 41.593 57.023 42.574 56.391 C45 55 45 55 47 55 C47.33 54.01 47.66 53.02 48 52 C51.927 50.036 55.657 48.658 60 48 C60.75 50.187 60.75 50.187 61 53 C59.25 55.438 59.25 55.438 57 58 C56.546 58.907 56.093 59.815 55.625 60.75 C52.236 67.528 47.78 73.944 42.609 79.492 C41.188 81.062 41.188 81.062 39 84 C39.363 86.184 39.363 86.184 40 88 C45.944 89.632 51.84 90.618 57.949 91.438 C60.878 91.978 63.255 92.878 66 94 C67.658 94.319 69.327 94.586 71 94.812 C77.006 95.755 82.897 97.05 88.812 98.438 C89.708 98.643 90.603 98.848 91.525 99.06 C96.626 100.275 101.249 101.777 106 104 C106 105.32 106 106.64 106 108 C99.421 111.184 92.856 112.697 85.688 113.853 C75.92 115.45 66.388 117.858 57 121 C55.569 121.36 54.131 121.695 52.688 122 C48.763 122.837 44.853 123.722 40.945 124.633 C39 125 39 125 36 125 C37.381 127.486 38.629 129.648 40.703 131.613 C44.049 135.091 46.714 139.005 49.5 142.938 C50.634 144.531 51.77 146.123 52.906 147.715 C53.439 148.461 53.972 149.208 54.521 149.977 C55.739 151.643 57.025 153.259 58.328 154.859 C60.332 157.426 61.13 159.884 62 163 C51.556 161.771 43.582 156.836 35 151 C32.169 149.186 29.329 147.385 26.488 145.586 C24.645 144.411 22.818 143.212 21 142 C19.519 143.481 19.52 144.947 19.125 147 C18.952 147.889 18.78 148.779 18.602 149.695 C18.14 152.23 17.699 154.764 17.273 157.305 C17.21 157.681 17.21 157.681 16.886 159.586 C16.632 161.093 16.383 162.601 16.141 164.109 C15.521 167.784 14.663 170.701 13 174 C12.479 176.546 12.027 179.061 11.625 181.625 C10.546 188.05 9.361 194.441 8 200.812 C7.846 201.571 7.692 202.329 7.534 203.11 C6.672 207.06 5.771 210 3 213 C1.133 212.391 1.133 212.391 -1 211 C-4.395 203.144 -5.561 194.404 -6.508 185.961 C-7 183 -7 183 -7.982 181.088 C-9.065 178.867 -9.445 177.069 -9.781 174.629 C-9.901 173.807 -10.021 172.985 -10.145 172.139 C-10.262 171.289 -10.379 170.438 -10.5 169.562 C-11.215 164.403 -11.927 159.812 -14 155 C-14.399 153.113 -14.753 151.216 -15.062 149.312 C-15.899 144.201 -15.899 144.201 -17 142 C-20.695 142.599 -22.771 144.2 -25.625 146.562 C-29.789 150 -29.789 150 -32 150 C-32 150.66 -32 151.32 -32 152 C-34.467 153.951 -37.279 155.43 -40 157 C-40.926 157.536 -41.851 158.072 -42.805 158.625 C-50.997 163.243 -50.997 163.243 -56 164 C-57 161 -57 161 -56.285 159.125 C-52.621 152.757 -48.452 146.841 -44 141 C-43.3 140.067 -42.6 139.133 -41.879 138.172 C-41.259 137.455 -40.639 136.738 -40 136 C-39.34 136 -38.68 136 -38 136 C-37.773 135.278 -37.546 134.556 -37.312 133.812 C-35.752 130.468 -33.697 128.484 -31 126 C-37.939 123.135 -44.501 121.4 -51.957 120.492 C-55 120 -55 120 -57.973 119.008 C-62.238 117.588 -66.532 117.143 -70.977 116.562 C-73.772 116.042 -75.509 115.27 -78 114 C-79.865 113.631 -81.742 113.323 -83.625 113.062 C-87.684 112.421 -91.655 111.693 -95.625 110.625 C-96.422 110.411 -97.218 110.197 -98.039 109.977 C-100.507 108.748 -101.033 107.527 -102 105 C-98.655 102.034 -95.731 101.311 -91.375 100.5 C-87.239 99.685 -83.247 98.837 -79.25 97.5 C-73.726 95.739 -68.054 94.934 -62.331 94.09 C-58.257 93.469 -54.82 92.596 -51 91 C-49.03 90.618 -47.049 90.286 -45.062 90 C-40.861 89.347 -36.982 88.548 -33 87 C-33.93 84.925 -34.733 83.263 -36.363 81.656 C-44.949 72.968 -50.737 60.852 -56 50 C-54.332 48.805 -54.332 48.805 -52 48 C-49.449 49.195 -49.449 49.195 -46.688 51.125 C-43.694 53.183 -40.783 55.118 -37.59 56.859 C-32.872 59.509 -29.067 63.142 -25.074 66.754 C-21.862 69.597 -19.188 71.72 -15 73 C-14.963 72.045 -14.925 71.09 -14.887 70.105 C-14.525 63.001 -13.873 56.668 -11.758 49.84 C-10.543 45.286 -10.07 40.644 -9.527 35.969 C-9 33 -9 33 -7 30 C-6.449 27.349 -5.977 24.735 -5.562 22.062 C-2.291 2.291 -2.291 2.291 0 0 Z M-3 40 C-4.588 44.441 -5.641 48.802 -6.5 53.438 C-6.628 54.126 -6.756 54.815 -6.888 55.524 C-7.994 61.62 -8.779 67.736 -9.473 73.891 C-10 77 -10 77 -11.059 79.047 C-12.438 81.908 -12.413 83.861 -12 87 C-10.031 89.773 -10.031 89.773 -7.5 92.375 C-7.082 92.812 -7.082 92.812 -4.969 95.023 C-4.319 95.676 -3.669 96.328 -3 97 C-2.505 96.835 -2.505 96.835 0 96 C-0.03 95.1 -0.061 94.2 -0.092 93.272 C-0.231 89.077 -0.366 84.882 -0.5 80.688 C-0.524 79.935 -0.549 79.183 -0.574 78.409 C-0.883 68.747 -1.143 59.101 -0.875 49.434 C-0.812 45.762 -0.955 43.119 -3 40 Z M4 42 C4.12 47.298 4.244 52.596 4.372 57.894 C4.415 59.689 4.457 61.485 4.497 63.281 C4.737 73.884 5.104 84.429 6 95 C7.32 95.33 8.64 95.66 10 96 C16.037 86.921 16.037 86.921 17 82 C16.25 79.312 16.25 79.312 15 76 C14.638 74.214 14.307 72.421 14 70.625 C13.318 66.684 12.518 62.834 11.496 58.969 C10.945 56.783 10.508 54.585 10.062 52.375 C9.24 48.579 7.918 45.4 6 42 C5.34 42 4.68 42 4 42 Z M-37 67 C-36.25 69.938 -36.25 69.938 -35 73 C-33.677 73.372 -32.343 73.706 -31 74 C-30.31 75.657 -29.647 77.326 -29 79 C-24.223 84.531 -24.223 84.531 -20 85 C-19.34 83.68 -18.68 82.36 -18 81 C-20.222 79.033 -22.452 77.077 -24.688 75.125 C-25.313 74.569 -25.939 74.014 -26.584 73.441 C-29.9 70.559 -32.713 68.295 -37 67 Z M40 68 C39.481 68.398 38.961 68.797 38.426 69.207 C32.435 73.759 32.435 73.759 29.188 75.562 C26.42 77.381 25.301 78.964 24 82 C24.312 84.812 24.312 84.812 25 87 C27.335 86.827 28.692 86.298 30.379 84.668 C34 80.428 34 80.428 34 78 C34.598 77.752 35.196 77.505 35.812 77.25 C38.365 75.791 39.567 74.564 41 72 C40.574 69.867 40.574 69.867 40 68 Z M-37.902 95.012 C-41.184 96.059 -44.439 96.803 -47.812 97.5 C-48.421 97.628 -48.421 97.628 -51.5 98.277 C-53.623 98.716 -55.748 99.147 -57.875 99.566 C-59.93 99.985 -61.968 100.483 -64 101 C-64.33 101.66 -64.66 102.32 -65 103 C-45.53 103 -26.06 103 -6 103 C-6 100 -6 100 -7.496 98.465 C-8.137 97.961 -8.777 97.457 -9.438 96.938 C-12.91 94.181 -12.91 94.181 -14 92 C-22.454 89.686 -29.925 92.231 -37.902 95.012 Z M18.051 93.172 C16.812 94.75 16.812 94.75 15 98 C13.671 99.006 12.339 100.008 11 101 C11 101.66 11 102.32 11 103 C29.15 103 47.3 103 66 103 C66.33 102.34 66.66 101.68 67 101 C58.901 98.721 50.941 96.639 42.586 95.492 C40 95 40 95 37.633 94.008 C32.402 92.006 23.159 90.101 18.051 93.172 Z M-15.481 108.092 C-16.602 108.112 -17.723 108.132 -18.878 108.152 C-19.483 108.163 -19.483 108.163 -22.543 108.219 C-23.782 108.241 -25.02 108.263 -26.297 108.286 C-29.586 108.345 -32.876 108.404 -36.165 108.464 C-39.524 108.524 -42.882 108.584 -46.24 108.645 C-52.827 108.763 -59.413 108.881 -66 109 C-65.67 109.66 -65.34 110.32 -65 111 C-62.411 111.771 -59.882 112.418 -57.25 113 C-56.487 113.175 -55.723 113.35 -54.937 113.531 C-49.206 114.814 -43.466 115.776 -37.637 116.508 C-35.047 116.991 -33.311 117.786 -31 119 C-29.512 119.401 -28.01 119.755 -26.5 120.062 C-22.036 120.987 -22.036 120.987 -19.934 121.723 C-18 122 -18 122 -16.254 120.961 C-15.696 120.438 -15.138 119.914 -14.562 119.375 C-13.964 118.823 -13.366 118.272 -12.75 117.703 C-12.461 117.422 -12.461 117.422 -11 116 C-10.484 115.5 -9.969 115 -9.438 114.484 C-8.277 113.337 -7.136 112.171 -6 111 C-6.165 110.505 -6.165 110.505 -7 108 C-9.829 108 -12.653 108.041 -15.481 108.092 Z M59.441 108.043 C56.42 108.095 53.4 108.156 50.379 108.219 C49.279 108.241 48.179 108.263 47.046 108.286 C43.551 108.357 40.057 108.428 36.562 108.5 C34.186 108.548 31.809 108.596 29.432 108.645 C23.621 108.762 17.811 108.881 12 109 C12.821 113.165 14.401 114.547 17.75 117.188 C18.611 117.882 19.472 118.577 20.359 119.293 C23.063 121.041 24.798 121.814 28 122 C28.99 121.34 29.98 120.68 31 120 C33.066 119.543 33.066 119.543 35.562 119.188 C40.834 118.312 45.874 116.975 51 115.5 C57.618 113.603 64.178 112.007 71 111 C71 110.34 71 109.68 71 109 C67.496 107.248 63.3 107.978 59.441 108.043 Z M-3 115 C-12.532 123.963 -12.532 123.963 -13.547 128.383 C-13.293 130.745 -12.77 132.752 -12 135 C-11.756 135.813 -11.513 136.627 -11.262 137.465 C-10.755 139.151 -10.232 140.832 -9.691 142.508 C-8.816 145.663 -8.507 148.731 -8.309 151.992 C-8 154 -8 154 -7.043 155.773 C-5.545 158.972 -5.275 162.28 -4.875 165.75 C-4.789 166.447 -4.702 167.145 -4.613 167.863 C-4.402 169.575 -4.2 171.287 -4 173 C-3.01 173 -2.02 173 -1 173 C0.071 160.449 -0.049 148.08 -0.438 135.5 C-0.491 133.598 -0.544 131.695 -0.596 129.793 C-0.723 125.195 -0.859 120.598 -1 116 C-1.66 115.67 -2.32 115.34 -3 115 Z M6 116 C5.975 122.156 5.957 128.313 5.945 134.469 C5.94 136.562 5.933 138.655 5.925 140.749 C5.912 143.762 5.907 146.776 5.902 149.789 C5.897 150.721 5.892 151.652 5.887 152.612 C5.886 157.193 6.057 161.492 7 166 C9 165 9 165 9.654 163.057 C9.841 162.217 10.027 161.377 10.219 160.512 C10.428 159.583 10.637 158.654 10.852 157.697 C10.959 157.2 10.959 157.2 11.5 154.688 C11.722 153.686 11.944 152.684 12.173 151.653 C13.503 145.572 14.699 139.508 15.543 133.34 C16.054 130.723 16.942 128.442 18 126 C16.765 124.322 15.512 122.658 14.25 121 C13.554 120.072 12.858 119.144 12.141 118.188 C11.434 117.466 10.728 116.744 10 116 C8.68 116 7.36 116 6 116 Z M24 129 C23.34 130.32 22.68 131.64 22 133 C25.038 136.272 28.258 138.579 32 141 C33.253 141.913 34.503 142.83 35.75 143.75 C39 146 39 146 41 146 C39.585 141.497 37.425 139.196 34 136 C33.413 135.383 32.827 134.765 32.223 134.129 C31.613 133.488 31.003 132.848 30.375 132.188 C29.805 131.583 29.235 130.978 28.648 130.355 C27 129 27 129 24 129 Z M-26 131.609 C-26.66 132.316 -27.32 133.022 -28 133.75 C-28.66 134.446 -29.32 135.142 -30 135.859 C-30.33 136.213 -30.33 136.213 -32 138 C-32.727 138.701 -33.454 139.403 -34.203 140.125 C-36.117 142.122 -36.614 143.3 -37 146 C-32.442 143.885 -28.609 141.367 -24.625 138.312 C-24.08 137.897 -23.534 137.481 -22.973 137.053 C-21.645 136.04 -20.322 135.02 -19 134 C-19.33 132.68 -19.66 131.36 -20 130 C-24 130 -24 130 -26 131.609 Z " fill="#205577" transform="translate(177,76)"/>
<path d="M0 0 C0.482 0.012 0.482 0.012 2.922 0.074 C5.25 0.312 5.25 0.312 6.25 1.312 C6.291 3.312 6.293 5.313 6.25 7.312 C2.95 7.643 -0.35 7.972 -3.75 8.312 C-4.08 10.292 -4.41 12.273 -4.75 14.312 C-2.732 14.215 -0.714 14.117 1.305 14.02 C1.947 14.116 2.589 14.213 3.25 14.312 C3.58 14.808 3.58 14.808 5.25 17.312 C4.25 19.312 4.25 19.312 2.402 19.945 C2.037 20.027 2.037 20.027 0.188 20.438 C-0.546 20.605 -1.279 20.773 -2.035 20.945 C-2.601 21.066 -3.167 21.188 -3.75 21.312 C-4.312 23.25 -4.312 23.25 -4.75 25.312 C-2.863 27.2 0.555 26.619 3.121 26.738 C5.25 27.312 5.25 27.312 6.535 29.355 C6.771 30.001 7.007 30.647 7.25 31.312 C6.92 31.808 6.92 31.808 5.25 34.312 C2.063 34.711 2.063 34.711 -1.75 34.688 C-3.008 34.695 -4.266 34.703 -5.562 34.711 C-6.614 34.579 -7.666 34.448 -8.75 34.312 C-12.058 29.35 -11.16 23.706 -11.188 17.875 C-11.22 16.634 -11.253 15.394 -11.287 14.115 C-11.294 12.923 -11.301 11.732 -11.309 10.504 C-11.322 9.413 -11.336 8.322 -11.349 7.198 C-10.75 4.312 -10.75 4.312 -8.394 1.952 C-5.305 0.037 -3.599 -0.141 0 0 Z " fill="#205577" transform="translate(309.75,164.6875)"/>
<path d="M0 0 C1.32 0.33 2.64 0.66 4 1 C4.317 6.182 4.29 10.274 1.926 15.035 C0.314 18.457 -0.808 22.07 -2.035 25.645 C-3 28 -3 28 -5 30 C-6.984 29.941 -6.984 29.941 -9 29 C-10.266 26.715 -10.266 26.715 -11.25 23.938 C-11.585 23.018 -11.92 22.099 -12.266 21.152 C-12.508 20.442 -12.75 19.732 -13 19 C-15 21 -15 21 -15.938 24.438 C-17.421 29.413 -17.421 29.413 -20 31 C-22.011 30.779 -22.011 30.779 -24 30 C-25.128 27.303 -25.949 24.867 -26.688 22.062 C-26.902 21.294 -27.116 20.526 -27.337 19.735 C-28.837 14.158 -29.725 8.78 -30 3 C-27 2 -27 2 -24 3 C-23.27 4.961 -23.27 4.961 -22.812 7.375 C-22.654 8.166 -22.495 8.958 -22.332 9.773 C-22 12 -22 12 -22 15 C-21.01 14.67 -20.02 14.34 -19 14 C-18.09 11.713 -17.542 9.417 -16.941 7.031 C-16 5 -16 5 -14.09 4.031 C-12 4 -12 4 -10.324 5.145 C-8.761 7.334 -8.309 9.052 -7.812 11.688 C-7.654 12.496 -7.495 13.304 -7.332 14.137 C-7.222 14.752 -7.113 15.366 -7 16 C-5.11 13.165 -4.385 11.231 -3.5 8 C-2.615 4.769 -1.89 2.835 0 0 Z " fill="#205577" transform="translate(60,168)"/>
<path d="M0 0 C0.376 0.048 0.376 0.048 2.281 0.293 C4.592 0.834 6.429 1.669 8.5 2.812 C8.17 4.462 7.84 6.113 7.5 7.812 C3.734 9.068 2.128 8.183 -1.5 6.812 C-1.83 7.473 -2.16 8.132 -2.5 8.812 C-0.5 11.812 -0.5 11.812 2.938 13.688 C6.316 15.546 8.014 17.142 9.5 20.812 C10.21 24.982 9.726 26.456 7.438 30.062 C4.423 33.237 1.961 34.515 -2.5 34.812 C-5.791 33.164 -8.635 31.113 -11.5 28.812 C-11.17 27.493 -10.84 26.173 -10.5 24.812 C-7.625 24.688 -7.625 24.688 -4.5 24.812 C-3.84 25.473 -3.18 26.132 -2.5 26.812 C-0.375 26.438 -0.375 26.438 1.5 25.812 C1.83 24.493 2.16 23.173 2.5 21.812 C1.23 20.853 -0.041 19.895 -1.312 18.938 C-2.02 18.404 -2.728 17.87 -3.457 17.32 C-5.105 16.104 -6.796 14.948 -8.5 13.812 C-8.934 11.316 -8.934 11.316 -8.938 8.375 C-8.957 7.407 -8.976 6.439 -8.996 5.441 C-8.5 2.812 -8.5 2.812 -6.754 0.953 C-4.138 -0.371 -2.875 -0.418 0 0 Z " fill="#205577" transform="translate(179.5,302.1875)"/>
</svg>
